<svg width="100" height="34" viewBox="0 0 100 34" fill="none" xmlns="http://www.w3.org/2000/svg">
<g clip-path="url(#clip0_302_9)">
<path d="M7.03764 3.81818V14H4.88494V3.81818H7.03764ZM10.8869 9.58523V14H8.769V6.36364H10.7875V7.71094H10.877C11.046 7.26681 11.3294 6.91548 11.7271 6.65696C12.1248 6.39512 12.6071 6.2642 13.1738 6.2642C13.7041 6.2642 14.1665 6.38021 14.5609 6.61222C14.9553 6.84422 15.2619 7.17566 15.4806 7.60653C15.6994 8.03409 15.8088 8.54451 15.8088 9.13778V14H13.6909V9.51562C13.6942 9.0483 13.5749 8.68371 13.3329 8.42188C13.091 8.15672 12.7579 8.02415 12.3336 8.02415C12.0486 8.02415 11.7967 8.08546 11.5779 8.2081C11.3625 8.33073 11.1935 8.50971 11.0708 8.74503C10.9515 8.97704 10.8902 9.2571 10.8869 9.58523ZM23.8317 8.54119L21.8928 8.66051C21.8596 8.49479 21.7884 8.34564 21.679 8.21307C21.5696 8.07718 21.4254 7.96946 21.2464 7.88991C21.0708 7.80705 20.8603 7.76562 20.6151 7.76562C20.2869 7.76562 20.0102 7.83523 19.7848 7.97443C19.5594 8.11032 19.4467 8.29261 19.4467 8.52131C19.4467 8.7036 19.5196 8.85772 19.6655 8.98366C19.8113 9.10961 20.0616 9.2107 20.4162 9.28693L21.7983 9.56534C22.5407 9.7178 23.0942 9.96307 23.4588 10.3011C23.8234 10.6392 24.0057 11.0833 24.0057 11.6335C24.0057 12.134 23.8582 12.5732 23.5632 12.951C23.2715 13.3288 22.8705 13.6238 22.3601 13.8359C21.853 14.0447 21.268 14.1491 20.6051 14.1491C19.5942 14.1491 18.7888 13.9387 18.1889 13.5178C17.5923 13.0935 17.2427 12.5168 17.1399 11.7876L19.223 11.6783C19.286 11.9865 19.4384 12.2218 19.6804 12.3842C19.9223 12.5433 20.2322 12.6229 20.6101 12.6229C20.9813 12.6229 21.2796 12.5516 21.505 12.4091C21.7337 12.2633 21.8497 12.076 21.853 11.8473C21.8497 11.6551 21.7685 11.4976 21.6094 11.375C21.4503 11.2491 21.205 11.1529 20.8736 11.0866L19.5511 10.8232C18.8054 10.674 18.2502 10.4155 17.8857 10.0476C17.5244 9.67969 17.3438 9.2107 17.3438 8.64062C17.3438 8.15009 17.4763 7.72751 17.7415 7.37287C18.0099 7.01823 18.3861 6.74479 18.87 6.55256C19.3572 6.36032 19.9273 6.2642 20.5803 6.2642C21.5447 6.2642 22.3037 6.46804 22.8572 6.87571C23.4141 7.28338 23.7389 7.83854 23.8317 8.54119ZM28.8194 14.1491C28.0339 14.1491 27.3578 13.9901 26.791 13.6719C26.2276 13.3504 25.7934 12.8963 25.4885 12.3097C25.1835 11.7197 25.0311 11.022 25.0311 10.2166C25.0311 9.43111 25.1835 8.74171 25.4885 8.14844C25.7934 7.55516 26.2226 7.0928 26.7761 6.76136C27.3329 6.42992 27.9859 6.2642 28.7349 6.2642C29.2387 6.2642 29.7077 6.34541 30.1419 6.50781C30.5794 6.6669 30.9605 6.9072 31.2853 7.22869C31.6135 7.55019 31.8687 7.95455 32.051 8.44176C32.2333 8.92566 32.3244 9.49242 32.3244 10.142V10.7237H25.8762V9.41122H30.3308C30.3308 9.1063 30.2645 8.83617 30.1319 8.60085C29.9993 8.36553 29.8154 8.18158 29.5801 8.04901C29.3481 7.91312 29.0779 7.84517 28.7697 7.84517C28.4482 7.84517 28.1632 7.91974 27.9146 8.06889C27.6693 8.21473 27.4771 8.41193 27.3379 8.66051C27.1987 8.90578 27.1274 9.17921 27.1241 9.48082V10.7287C27.1241 11.1065 27.1937 11.433 27.3329 11.7081C27.4754 11.9832 27.676 12.1953 27.9345 12.3445C28.193 12.4936 28.4996 12.5682 28.8542 12.5682C29.0895 12.5682 29.305 12.535 29.5005 12.4688C29.6961 12.4025 29.8635 12.303 30.0027 12.1705C30.1419 12.0379 30.2479 11.8755 30.3208 11.6832L32.2797 11.8125C32.1802 12.2831 31.9764 12.6941 31.6681 13.0455C31.3632 13.3935 30.9688 13.6652 30.4849 13.8608C30.0043 14.053 29.4492 14.1491 28.8194 14.1491ZM6.63991 32H4.3331L7.84801 21.8182H10.6222L14.1321 32H11.8253L9.27486 24.1449H9.19531L6.63991 32ZM6.49574 27.9979H11.9446V29.6783H6.49574V27.9979ZM15.3178 34.8636V24.3636H17.4059V25.6463H17.5004C17.5932 25.4408 17.7274 25.232 17.9031 25.0199C18.082 24.8045 18.314 24.6255 18.5991 24.483C18.8874 24.3371 19.2454 24.2642 19.6729 24.2642C20.2298 24.2642 20.7435 24.41 21.2141 24.7017C21.6848 24.9901 22.061 25.4259 22.3427 26.0092C22.6244 26.5893 22.7653 27.3168 22.7653 28.1918C22.7653 29.0436 22.6277 29.7628 22.3526 30.3494C22.0808 30.9328 21.7096 31.3752 21.239 31.6768C20.7717 31.9751 20.248 32.1243 19.668 32.1243C19.257 32.1243 18.9073 32.0563 18.619 31.9205C18.3339 31.7846 18.1003 31.6139 17.918 31.4084C17.7357 31.1996 17.5965 30.9891 17.5004 30.777H17.4357V34.8636H15.3178ZM17.391 28.1818C17.391 28.6359 17.454 29.032 17.5799 29.37C17.7058 29.7081 17.8881 29.9716 18.1268 30.1605C18.3654 30.3461 18.6554 30.4389 18.9968 30.4389C19.3415 30.4389 19.6332 30.3445 19.8718 30.1555C20.1104 29.9633 20.2911 29.6982 20.4137 29.3601C20.5397 29.0187 20.6026 28.6259 20.6026 28.1818C20.6026 27.741 20.5413 27.3532 20.4187 27.0185C20.296 26.6837 20.1154 26.4219 19.8768 26.233C19.6381 26.044 19.3448 25.9496 18.9968 25.9496C18.6521 25.9496 18.3604 26.0407 18.1218 26.223C17.8865 26.4053 17.7058 26.6638 17.5799 26.9986C17.454 27.3333 17.391 27.7277 17.391 28.1818ZM24.1772 34.8636V24.3636H26.2653V25.6463H26.3597C26.4525 25.4408 26.5868 25.232 26.7624 25.0199C26.9414 24.8045 27.1734 24.6255 27.4585 24.483C27.7468 24.3371 28.1048 24.2642 28.5323 24.2642C29.0891 24.2642 29.6029 24.41 30.0735 24.7017C30.5442 24.9901 30.9203 25.4259 31.2021 26.0092C31.4838 26.5893 31.6246 27.3168 31.6246 28.1918C31.6246 29.0436 31.4871 29.7628 31.212 30.3494C30.9402 30.9328 30.569 31.3752 30.0984 31.6768C29.631 31.9751 29.1074 32.1243 28.5273 32.1243C28.1164 32.1243 27.7667 32.0563 27.4783 31.9205C27.1933 31.7846 26.9596 31.6139 26.7773 31.4084C26.5951 31.1996 26.4558 30.9891 26.3597 30.777H26.2951V34.8636H24.1772ZM26.2504 28.1818C26.2504 28.6359 26.3133 29.032 26.4393 29.37C26.5652 29.7081 26.7475 29.9716 26.9862 30.1605C27.2248 30.3461 27.5148 30.4389 27.8562 30.4389C28.2009 30.4389 28.4925 30.3445 28.7312 30.1555C28.9698 29.9633 29.1504 29.6982 29.2731 29.3601C29.399 29.0187 29.462 28.6259 29.462 28.1818C29.462 27.741 29.4007 27.3532 29.2781 27.0185C29.1554 26.6837 28.9748 26.4219 28.7362 26.233C28.4975 26.044 28.2042 25.9496 27.8562 25.9496C27.5115 25.9496 27.2198 26.0407 26.9812 26.223C26.7459 26.4053 26.5652 26.6638 26.4393 26.9986C26.3133 27.3333 26.2504 27.7277 26.2504 28.1818Z" fill="white"/>
</g>
<defs>
<clipPath id="clip0_302_9">
<rect width="100" height="34" fill="white"/>
</clipPath>
</defs>
</svg>
