<svg width="512" height="512" viewBox="0 0 512 512" fill="none" xmlns="http://www.w3.org/2000/svg">
<rect width="512" height="512" fill="#06092B"/>
<path d="M191.545 172.818V359H152.182V172.818H191.545ZM263.023 361.636C254.114 361.636 246.174 360.091 239.205 357C232.235 353.848 226.72 349.212 222.659 343.091C218.659 336.909 216.659 329.212 216.659 320C216.659 312.242 218.083 305.727 220.932 300.455C223.78 295.182 227.659 290.939 232.568 287.727C237.477 284.515 243.053 282.091 249.295 280.455C255.598 278.818 262.205 277.667 269.114 277C277.235 276.152 283.78 275.364 288.75 274.636C293.72 273.848 297.326 272.697 299.568 271.182C301.811 269.667 302.932 267.424 302.932 264.455V263.909C302.932 258.152 301.114 253.697 297.477 250.545C293.902 247.394 288.811 245.818 282.205 245.818C275.235 245.818 269.689 247.364 265.568 250.455C261.447 253.485 258.72 257.303 257.386 261.909L221.568 259C223.386 250.515 226.962 243.182 232.295 237C237.629 230.758 244.508 225.97 252.932 222.636C261.417 219.242 271.235 217.545 282.386 217.545C290.144 217.545 297.568 218.455 304.659 220.273C311.811 222.091 318.144 224.909 323.659 228.727C329.235 232.545 333.629 237.455 336.841 243.455C340.053 249.394 341.659 256.515 341.659 264.818V359H304.932V339.636H303.841C301.598 344 298.598 347.848 294.841 351.182C291.083 354.455 286.568 357.03 281.295 358.909C276.023 360.727 269.932 361.636 263.023 361.636ZM274.114 334.909C279.811 334.909 284.841 333.788 289.205 331.545C293.568 329.242 296.992 326.152 299.477 322.273C301.962 318.394 303.205 314 303.205 309.091V294.273C301.992 295.061 300.326 295.788 298.205 296.455C296.144 297.061 293.811 297.636 291.205 298.182C288.598 298.667 285.992 299.121 283.386 299.545C280.78 299.909 278.417 300.242 276.295 300.545C271.75 301.212 267.78 302.273 264.386 303.727C260.992 305.182 258.356 307.152 256.477 309.636C254.598 312.061 253.659 315.091 253.659 318.727C253.659 324 255.568 328.03 259.386 330.818C263.265 333.545 268.174 334.909 274.114 334.909Z" fill="#FAFAFA"/>
</svg>
