<svg width="60" height="60" viewBox="0 0 60 60" fill="none" xmlns="http://www.w3.org/2000/svg">
<rect width="60" height="60" fill="#06092B"/>
<path d="M21.8111 19.8182V46H16.2756V19.8182H21.8111ZM31.8626 46.3707C30.6097 46.3707 29.4933 46.1534 28.5131 45.7188C27.533 45.2756 26.7575 44.6236 26.1864 43.7628C25.6239 42.8935 25.3427 41.8111 25.3427 40.5156C25.3427 39.4247 25.543 38.5085 25.9435 37.767C26.3441 37.0256 26.8896 36.429 27.5799 35.9773C28.2702 35.5256 29.0543 35.1847 29.9322 34.9545C30.8185 34.7244 31.7475 34.5625 32.7191 34.4688C33.8612 34.3494 34.7816 34.2386 35.4805 34.1364C36.1793 34.0256 36.6864 33.8636 37.0018 33.6506C37.3171 33.4375 37.4748 33.1222 37.4748 32.7045V32.6278C37.4748 31.8182 37.2191 31.1918 36.7077 30.7486C36.2049 30.3054 35.489 30.0838 34.56 30.0838C33.5799 30.0838 32.8001 30.3011 32.2205 30.7358C31.641 31.1619 31.2575 31.6989 31.07 32.3466L26.033 31.9375C26.2887 30.7443 26.7915 29.7131 27.5415 28.8438C28.2915 27.9659 29.2589 27.2926 30.4435 26.8239C31.6367 26.3466 33.0174 26.108 34.5856 26.108C35.6765 26.108 36.7205 26.2358 37.7177 26.4915C38.7234 26.7472 39.614 27.1435 40.3896 27.6804C41.1737 28.2173 41.7915 28.9077 42.2433 29.7514C42.695 30.5866 42.9208 31.5881 42.9208 32.7557V46H37.756V43.277H37.6026C37.2873 43.8906 36.8654 44.4318 36.337 44.9006C35.8086 45.3608 35.1737 45.723 34.4322 45.9872C33.6907 46.2429 32.8342 46.3707 31.8626 46.3707ZM33.4222 42.6122C34.2234 42.6122 34.9308 42.4545 35.5444 42.1392C36.158 41.8153 36.6396 41.3807 36.989 40.8352C37.3384 40.2898 37.5131 39.6719 37.5131 38.9815V36.8977C37.3427 37.0085 37.1083 37.1108 36.81 37.2045C36.5202 37.2898 36.1921 37.3707 35.8256 37.4474C35.4592 37.5156 35.0927 37.5795 34.7262 37.6392C34.3597 37.6903 34.0273 37.7372 33.729 37.7798C33.0898 37.8736 32.5316 38.0227 32.0543 38.2273C31.5771 38.4318 31.2063 38.7088 30.9421 39.0582C30.6779 39.3991 30.5458 39.8253 30.5458 40.3366C30.5458 41.0781 30.8143 41.6449 31.3512 42.0369C31.8967 42.4205 32.587 42.6122 33.4222 42.6122Z" fill="#FAFAFA"/>
</svg>
